<svg width="208" height="208" xmlns="http://www.w3.org/2000/svg"><rect width="100%" height="100%" fill="white"/><rect x="20" y="20" width="8" height="8" fill="black"/><rect x="28" y="20" width="8" height="8" fill="black"/><rect x="36" y="20" width="8" height="8" fill="black"/><rect x="44" y="20" width="8" height="8" fill="black"/><rect x="52" y="20" width="8" height="8" fill="black"/><rect x="60" y="20" width="8" height="8" fill="black"/><rect x="68" y="20" width="8" height="8" fill="black"/><rect x="84" y="20" width="8" height="8" fill="black"/><rect x="132" y="20" width="8" height="8" fill="black"/><rect x="140" y="20" width="8" height="8" fill="black"/><rect x="148" y="20" width="8" height="8" fill="black"/><rect x="156" y="20" width="8" height="8" fill="black"/><rect x="164" y="20" width="8" height="8" fill="black"/><rect x="172" y="20" width="8" height="8" fill="black"/><rect x="180" y="20" width="8" height="8" fill="black"/><rect x="20" y="28" width="8" height="8" fill="black"/><rect x="68" y="28" width="8" height="8" fill="black"/><rect x="84" y="28" width="8" height="8" fill="black"/><rect x="132" y="28" width="8" height="8" fill="black"/><rect x="180" y="28" width="8" height="8" fill="black"/><rect x="20" y="36" width="8" height="8" fill="black"/><rect x="36" y="36" width="8" height="8" fill="black"/><rect x="44" y="36" width="8" height="8" fill="black"/><rect x="52" y="36" width="8" height="8" fill="black"/><rect x="68" y="36" width="8" height="8" fill="black"/><rect x="84" y="36" width="8" height="8" fill="black"/><rect x="132" y="36" width="8" height="8" fill="black"/><rect x="148" y="36" width="8" height="8" fill="black"/><rect x="156" y="36" width="8" height="8" fill="black"/><rect x="164" y="36" width="8" height="8" fill="black"/><rect x="180" y="36" width="8" height="8" fill="black"/><rect x="20" y="44" width="8" height="8" fill="black"/><rect x="36" y="44" width="8" height="8" fill="black"/><rect x="44" y="44" width="8" height="8" fill="black"/><rect x="52" y="44" width="8" height="8" fill="black"/><rect x="68" y="44" width="8" height="8" fill="black"/><rect x="84" y="44" width="8" height="8" fill="black"/><rect x="132" y="44" width="8" height="8" fill="black"/><rect x="148" y="44" width="8" height="8" fill="black"/><rect x="156" y="44" width="8" height="8" fill="black"/><rect x="164" y="44" width="8" height="8" fill="black"/><rect x="180" y="44" width="8" height="8" fill="black"/><rect x="20" y="52" width="8" height="8" fill="black"/><rect x="36" y="52" width="8" height="8" fill="black"/><rect x="44" y="52" width="8" height="8" fill="black"/><rect x="52" y="52" width="8" height="8" fill="black"/><rect x="68" y="52" width="8" height="8" fill="black"/><rect x="84" y="52" width="8" height="8" fill="black"/><rect x="132" y="52" width="8" height="8" fill="black"/><rect x="148" y="52" width="8" height="8" fill="black"/><rect x="156" y="52" width="8" height="8" fill="black"/><rect x="164" y="52" width="8" height="8" fill="black"/><rect x="180" y="52" width="8" height="8" fill="black"/><rect x="20" y="60" width="8" height="8" fill="black"/><rect x="68" y="60" width="8" height="8" fill="black"/><rect x="84" y="60" width="8" height="8" fill="black"/><rect x="132" y="60" width="8" height="8" fill="black"/><rect x="180" y="60" width="8" height="8" fill="black"/><rect x="20" y="68" width="8" height="8" fill="black"/><rect x="28" y="68" width="8" height="8" fill="black"/><rect x="36" y="68" width="8" height="8" fill="black"/><rect x="44" y="68" width="8" height="8" fill="black"/><rect x="52" y="68" width="8" height="8" fill="black"/><rect x="60" y="68" width="8" height="8" fill="black"/><rect x="68" y="68" width="8" height="8" fill="black"/><rect x="84" y="68" width="8" height="8" fill="black"/><rect x="100" y="68" width="8" height="8" fill="black"/><rect x="116" y="68" width="8" height="8" fill="black"/><rect x="132" y="68" width="8" height="8" fill="black"/><rect x="140" y="68" width="8" height="8" fill="black"/><rect x="148" y="68" width="8" height="8" fill="black"/><rect x="156" y="68" width="8" height="8" fill="black"/><rect x="164" y="68" width="8" height="8" fill="black"/><rect x="172" y="68" width="8" height="8" fill="black"/><rect x="180" y="68" width="8" height="8" fill="black"/><rect x="84" y="76" width="8" height="8" fill="black"/><rect x="20" y="84" width="8" height="8" fill="black"/><rect x="28" y="84" width="8" height="8" fill="black"/><rect x="36" y="84" width="8" height="8" fill="black"/><rect x="44" y="84" width="8" height="8" fill="black"/><rect x="52" y="84" width="8" height="8" fill="black"/><rect x="60" y="84" width="8" height="8" fill="black"/><rect x="68" y="84" width="8" height="8" fill="black"/><rect x="76" y="84" width="8" height="8" fill="black"/><rect x="84" y="84" width="8" height="8" fill="black"/><rect x="68" y="100" width="8" height="8" fill="black"/><rect x="68" y="116" width="8" height="8" fill="black"/><rect x="20" y="132" width="8" height="8" fill="black"/><rect x="28" y="132" width="8" height="8" fill="black"/><rect x="36" y="132" width="8" height="8" fill="black"/><rect x="44" y="132" width="8" height="8" fill="black"/><rect x="52" y="132" width="8" height="8" fill="black"/><rect x="60" y="132" width="8" height="8" fill="black"/><rect x="68" y="132" width="8" height="8" fill="black"/><rect x="132" y="132" width="8" height="8" fill="black"/><rect x="140" y="132" width="8" height="8" fill="black"/><rect x="148" y="132" width="8" height="8" fill="black"/><rect x="156" y="132" width="8" height="8" fill="black"/><rect x="164" y="132" width="8" height="8" fill="black"/><rect x="20" y="140" width="8" height="8" fill="black"/><rect x="68" y="140" width="8" height="8" fill="black"/><rect x="132" y="140" width="8" height="8" fill="black"/><rect x="164" y="140" width="8" height="8" fill="black"/><rect x="20" y="148" width="8" height="8" fill="black"/><rect x="36" y="148" width="8" height="8" fill="black"/><rect x="44" y="148" width="8" height="8" fill="black"/><rect x="52" y="148" width="8" height="8" fill="black"/><rect x="68" y="148" width="8" height="8" fill="black"/><rect x="132" y="148" width="8" height="8" fill="black"/><rect x="148" y="148" width="8" height="8" fill="black"/><rect x="164" y="148" width="8" height="8" fill="black"/><rect x="20" y="156" width="8" height="8" fill="black"/><rect x="36" y="156" width="8" height="8" fill="black"/><rect x="44" y="156" width="8" height="8" fill="black"/><rect x="52" y="156" width="8" height="8" fill="black"/><rect x="68" y="156" width="8" height="8" fill="black"/><rect x="132" y="156" width="8" height="8" fill="black"/><rect x="164" y="156" width="8" height="8" fill="black"/><rect x="20" y="164" width="8" height="8" fill="black"/><rect x="36" y="164" width="8" height="8" fill="black"/><rect x="44" y="164" width="8" height="8" fill="black"/><rect x="52" y="164" width="8" height="8" fill="black"/><rect x="68" y="164" width="8" height="8" fill="black"/><rect x="132" y="164" width="8" height="8" fill="black"/><rect x="140" y="164" width="8" height="8" fill="black"/><rect x="148" y="164" width="8" height="8" fill="black"/><rect x="156" y="164" width="8" height="8" fill="black"/><rect x="164" y="164" width="8" height="8" fill="black"/><rect x="20" y="172" width="8" height="8" fill="black"/><rect x="68" y="172" width="8" height="8" fill="black"/><rect x="20" y="180" width="8" height="8" fill="black"/><rect x="28" y="180" width="8" height="8" fill="black"/><rect x="36" y="180" width="8" height="8" fill="black"/><rect x="44" y="180" width="8" height="8" fill="black"/><rect x="52" y="180" width="8" height="8" fill="black"/><rect x="60" y="180" width="8" height="8" fill="black"/><rect x="68" y="180" width="8" height="8" fill="black"/></svg>