<svg width="200" height="200" viewBox="0 0 200 200" xmlns="http://www.w3.org/2000/svg">
  <!-- White background -->
  <rect width="200" height="200" fill="white"/>

  <!-- QR Code pattern - simplified for readability -->
  <!-- Position markers -->
  <rect x="20" y="20" width="40" height="40" fill="black"/>
  <rect x="30" y="30" width="20" height="20" fill="white"/>
  <rect x="35" y="35" width="10" height="10" fill="black"/>

  <rect x="140" y="20" width="40" height="40" fill="black"/>
  <rect x="150" y="30" width="20" height="20" fill="white"/>
  <rect x="155" y="35" width="10" height="10" fill="black"/>

  <rect x="20" y="140" width="40" height="40" fill="black"/>
  <rect x="30" y="150" width="20" height="20" fill="white"/>
  <rect x="35" y="155" width="10" height="10" fill="black"/>

  <!-- Data pattern -->
  <rect x="80" y="80" width="8" height="8" fill="black"/>
  <rect x="88" y="80" width="8" height="8" fill="black"/>
  <rect x="96" y="80" width="8" height="8" fill="black"/>
  <rect x="104" y="80" width="8" height="8" fill="black"/>
  <rect x="112" y="80" width="8" height="8" fill="black"/>
  <rect x="120" y="80" width="8" height="8" fill="black"/>

  <rect x="80" y="88" width="8" height="8" fill="white"/>
  <rect x="88" y="88" width="8" height="8" fill="black"/>
  <rect x="96" y="88" width="8" height="8" fill="white"/>
  <rect x="104" y="88" width="8" height="8" fill="black"/>
  <rect x="112" y="88" width="8" height="8" fill="black"/>
  <rect x="120" y="88" width="8" height="8" fill="black"/>

  <rect x="80" y="96" width="8" height="8" fill="black"/>
  <rect x="88" y="96" width="8" height="8" fill="white"/>
  <rect x="96" y="96" width="8" height="8" fill="black"/>
  <rect x="104" y="96" width="8" height="8" fill="white"/>
  <rect x="112" y="96" width="8" height="8" fill="black"/>
  <rect x="120" y="96" width="8" height="8" fill="black"/>

  <rect x="80" y="104" width="8" height="8" fill="white"/>
  <rect x="88" y="104" width="8" height="8" fill="black"/>
  <rect x="96" y="104" width="8" height="8" fill="black"/>
  <rect x="104" y="104" width="8" height="8" fill="white"/>
  <rect x="112" y="104" width="8" height="8" fill="black"/>
  <rect x="120" y="104" width="8" height="8" fill="black"/>

  <rect x="80" y="112" width="8" height="8" fill="black"/>
  <rect x="88" y="112" width="8" height="8" fill="black"/>
  <rect x="96" y="112" width="8" height="8" fill="white"/>
  <rect x="104" y="112" width="8" height="8" fill="black"/>
  <rect x="112" y="112" width="8" height="8" fill="white"/>
  <rect x="120" y="112" width="8" height="8" fill="black"/>

  <rect x="80" y="120" width="8" height="8" fill="white"/>
  <rect x="88" y="120" width="8" height="8" fill="black"/>
  <rect x="96" y="120" width="8" height="8" fill="black"/>
  <rect x="104" y="120" width="8" height="8" fill="black"/>
  <rect x="112" y="120" width="8" height="8" fill="black"/>
  <rect x="120" y="120" width="8" height="8" fill="white"/>

  <!-- Text overlay -->
  <text x="100" y="170" text-anchor="middle" font-family="Arial, sans-serif" font-size="10" fill="black">R1 App</text>
</svg>
